<svg xmlns="http://www.w3.org/2000/svg" width="550" height="550" viewBox="0 0 500 500"><path d="M-58.004-151.218c18.677-16.288-114.005 17.354-114.005 17.354C-50.209-42.789-64.025 146.76 32.818 301.91 80.764-81.766 152.764-72.03 277.65-185.194c0 0-91.6 49.473-165.189 25.821-61.734-19.841-88.253 165.185-96.979 304.65C10.97 217.412-130.72-87.8-58.004-151.219" style="fill:#0ff;fill-opacity:1;stroke-width:4.33009" transform="translate(186.63 190.69)"/><path d="M-23.407-148.656c18.094-28.76-148.596 14.79-148.596 14.79C-30.228-87.908-50.973 168.244 33.195 309.31 105.384-70.48 177.28-59.22 309.088-164.084c0 0-113.29 38.234-159.09 14.837-38.845-19.844-96.549 145.59-123.505 298.016-12.585 71.161-101.414-215.543-49.9-297.425" style="fill:#00b3b3;fill-opacity:1;stroke-width:4.33009" transform="translate(186.63 190.69)"/><path d="M-31.074-174.424C-15.443-204.51-182.12-160.49-182.12-160.49-41.51-120.924-55.135 143.552 18.374 280.57c89.082-366.45 157.643-364.26 274.532-471.036 0 0-115.147 31.862-151.123 8.134-36.299-23.94-96.361 158.918-123.287 310.811-12.57 70.913-93.385-218.573-49.57-302.902" style="fill:#25523e;fill-opacity:1;stroke-width:4.32007" transform="translate(186.63 190.69)"/><path d="M-38.203-175.317c18.074-28.66-148.427 14.738-148.427 14.738C-45.016-114.78-65.737 140.475 18.336 281.048 90.442-97.414 162.256-86.194 293.914-190.69c0 0-141.494 34.849-158.909 14.785-25.879-29.816-96.438 145.08-123.365 296.974C-.93 191.98-89.658-93.721-38.203-175.317" style="fill:#2fc2ff;fill-opacity:1;stroke-width:4.32007" transform="translate(186.63 190.69)"/></svg>
