<?xml version="1.0" standalone="no"?>
<!DOCTYPE svg PUBLIC "-//W3C//DTD SVG 20010904//EN"
 "http://www.w3.org/TR/2001/REC-SVG-20010904/DTD/svg10.dtd">
<svg version="1.0" xmlns="http://www.w3.org/2000/svg"
 width="700.000000pt" height="700.000000pt" viewBox="0 0 700.000000 700.000000"
 preserveAspectRatio="xMidYMid meet">
<metadata>
Created by potrace 1.14, written by Peter Selinger 2001-2017
</metadata>
<g transform="translate(0.000000,700.000000) scale(0.100000,-0.100000)"
fill="#000000" stroke="none">
<path d="M6650 6984 c-55 -14 -479 -108 -535 -119 -115 -21 -380 -65 -430 -71
-33 -3 -69 -8 -80 -10 -95 -18 -520 -25 -653 -11 -113 12 -219 43 -321 93 -87
42 -99 46 -148 41 -37 -4 -70 -16 -102 -37 -54 -34 -189 -170 -240 -241 l-33
-46 -73 -5 c-241 -16 -468 -291 -645 -785 -120 -334 -241 -823 -316 -1283 -3
-14 -7 -36 -9 -50 -10 -50 -13 -66 -19 -115 -4 -27 -11 -75 -16 -105 -5 -30
-12 -71 -15 -90 -2 -19 -11 -82 -19 -140 -8 -58 -18 -129 -21 -159 -4 -30 -8
-61 -10 -70 -2 -14 -12 -99 -20 -181 -1 -14 -5 -49 -9 -77 -3 -29 -8 -74 -11
-100 -12 -103 -17 -133 -40 -238 -2 -11 -27 -132 -54 -270 -28 -137 -56 -276
-62 -308 -14 -68 -46 -121 -76 -125 -16 -2 -28 9 -51 50 -73 128 -210 506
-287 793 -48 177 -122 497 -151 645 -2 14 -7 36 -9 50 -37 186 -86 532 -101
705 -3 39 -7 81 -10 95 -24 143 -23 804 1 931 2 9 6 40 10 70 21 176 89 402
161 536 54 101 57 136 13 159 -35 18 -54 22 -124 30 -27 3 -50 6 -51 7 -4 4
43 132 70 190 32 70 33 100 4 126 -26 25 -66 38 -138 46 -61 6 -250 7 -320 0
-57 -5 -147 -15 -180 -20 -14 -2 -47 -6 -75 -10 -27 -3 -102 -15 -165 -26 -63
-11 -126 -22 -139 -24 -14 -2 -47 -9 -75 -14 -28 -6 -62 -13 -76 -15 -139 -24
-562 -119 -813 -182 -97 -24 -181 -44 -185 -45 -4 0 20 -9 53 -20 144 -47 502
-248 478 -268 -4 -5 -35 -14 -68 -21 -71 -16 -60 -13 -165 -40 -47 -12 -86
-23 -87 -24 -2 -2 45 -43 105 -92 110 -91 310 -286 372 -363 19 -23 44 -53 54
-64 87 -100 250 -338 351 -513 269 -465 464 -976 777 -2029 60 -203 122 -413
138 -465 16 -52 45 -149 65 -215 41 -133 87 -280 175 -550 32 -99 84 -259 115
-355 95 -292 235 -652 316 -813 10 -20 27 -54 38 -75 32 -63 114 -216 121
-227 4 -5 41 -75 81 -155 40 -80 91 -176 113 -214 36 -64 40 -67 48 -46 5 13
11 40 14 59 32 204 283 1374 324 1506 5 17 12 44 15 60 3 17 12 55 20 85 9 30
18 66 21 80 3 14 25 99 50 190 24 91 46 174 49 185 3 11 14 52 26 90 11 39 24
84 28 100 66 257 290 902 426 1224 382 905 839 1505 1561 2048 88 66 260 192
403 293 89 63 230 164 314 223 187 133 596 441 592 445 -2 2 -63 -15 -137 -38
-115 -35 -526 -141 -598 -154 -14 -2 -45 -9 -70 -15 -25 -5 -61 -12 -80 -16
l-35 -5 32 27 c17 16 78 66 135 113 86 71 512 433 543 461 11 11 5 11 -65 -7z"/>
</g>
</svg>
